<svg version="1.2" xmlns="http://www.w3.org/2000/svg" viewBox="0 0 791 124" width="791" height="124"><style>.a{fill:#52b483}.b{fill:#020a24}</style><path class="a" d="m71.6 0h-23.8-47.7v23.9h47.7v53.7h23.8v-53.7h47.7v-23.9z"/><path class="a" d="m95.5 100.2h-71.6v-52.5h-23.8v52.5 23.9h23.8 71.6 23.8v-23.9-52.5h-23.8z"/><path class="b" d="m161.8 100.2v-76.4l15.5 0.1v63.2h30.3v13.1h-45.8z"/><path fill-rule="evenodd" class="b" d="m237.4 101.5q-9.3 0-14.8-3.2-5.4-3.1-7.8-9.5-2.3-6.4-2.3-16 0-10.4 3-17 2.9-6.6 8.7-9.8 5.7-3.1 14.1-3.1 12.4 0 18.8 6.2 6.3 6.3 6.3 19.8l-0.7 8.3h-35.2q0.1 6.3 2.6 9.4 2.5 3.1 8.5 3.1 3.5 0 7.6-0.2 4.2-0.1 8.3-0.4 4.1-0.2 7-0.4l0.3 10.4q-2.8 0.4-7 1-4.3 0.6-8.8 0.9-4.6 0.4-8.6 0.4zm11.1-33.7q0-7.6-2.4-10.7-2.4-3-7.8-3-3.6 0-5.9 1.4-2.4 1.3-3.6 4.3-1.3 3-1.3 8z"/><path fill-rule="evenodd" class="b" d="m287.9 101.5q-8.7 0-13.1-4.5-4.5-4.4-4.5-13.3 0-6.3 2.3-9.8 2.2-3.5 6.7-5.1 4.4-1.7 10.8-2l13.7-1.2v-3.4q0-4-2.1-5.6-2-1.6-5.9-1.7-3.1 0.1-7.2 0.3-4.1 0.2-8.1 0.5-4 0.4-6.9 0.7l-0.5-10.5q3-0.7 7.1-1.4 4-0.7 8.5-1.2 4.5-0.4 8.3-0.4 7.2 0 12 1.8 4.8 1.7 7.3 5.8 2.5 4.1 2.5 11v25.6q0.2 1.6 1.7 2.4 1.4 0.9 3.3 1.2l-0.3 10.3q-1.8 0-3.5 0.1-1.8 0-3.3 0-1.6-0.1-2.8-0.3-2.6-0.3-4.5-1.4-1.8-1-2.9-2.1-1.8 0.8-4.9 1.8-3 1-6.5 1.7-3.6 0.7-7.1 0.7zm3.5-11.1q2.2 0 4.5-0.5 2.4-0.4 4.5-1 2-0.6 3.3-1.2v-12.9l-11.5 1.1q-3.7 0.3-5.3 2.1-1.6 1.9-1.6 5.2 0 3.4 1.5 5.3 1.5 1.9 4.6 1.9z"/><path fill-rule="evenodd" class="b" d="m350.8 101.5q-4 0-7.4-1-3.3-0.9-5.8-3-2.6-2.1-4.3-5.4-1.8-3.4-2.6-8.3-0.9-4.8-0.9-11.3 0-9.6 2.4-16.2 2.4-6.6 7.7-10 5.2-3.4 14-3.4 1.6 0 3.9 0.1 2.2 0.2 4.4 0.5 2.1 0.3 3.4 0.5v-22.8h15v79h-14.7l-0.2-3.2q-1.5 0.9-4 2-2.6 1-5.4 1.7-2.8 0.8-5.5 0.8zm3.8-12.5q2.1 0 4.1-0.5 2.1-0.4 4-1.1 1.8-0.6 2.9-1.1v-30.1q-1-0.2-2.7-0.4-1.6-0.2-3.4-0.3-1.8-0.2-3.3-0.2-4.4 0-6.8 2-2.4 2-3.4 5.9-1 3.8-1 9.3 0 4.8 0.7 8 0.6 3.2 1.9 5 1.3 1.9 3.1 2.7 1.8 0.8 3.9 0.8z"/><path class="b" d="m408.7 100.2v-63.3h-20.6v-13h56v13h-19.9v63.3z"/><path class="b" d="m443.6 100.2v-56.1h14.9v6.6q1.9-1.5 4.7-3.1 2.8-1.6 6.1-3 3.3-1.4 6.3-1.9v14.5q-2.9 0.4-6.1 1.5-3.3 1-6.2 2.3-2.8 1.2-4.8 2.2v37h-15z"/><path fill-rule="evenodd" class="b" d="m498 101.5q-8.7 0-13.1-4.5-4.4-4.4-4.4-13.3 0-6.3 2.2-9.8 2.2-3.5 6.7-5.1 4.4-1.7 10.8-2l13.7-1.2v-3.4q0-4-2.1-5.6-2-1.6-5.9-1.7-3.1 0.1-7.2 0.3-4.1 0.2-8.1 0.5-4 0.4-6.9 0.7l-0.4-10.5q2.9-0.7 7-1.4 4.1-0.7 8.6-1.2 4.4-0.4 8.3-0.4 7.1 0 12 1.8 4.8 1.7 7.2 5.8 2.5 4.1 2.5 11v25.6q0.2 1.6 1.7 2.4 1.4 0.9 3.4 1.2l-0.4 10.3q-1.8 0-3.5 0.1-1.8 0-3.3 0-1.6-0.1-2.8-0.3-2.6-0.3-4.5-1.4-1.8-1-2.9-2.1-1.8 0.8-4.8 1.8-3.1 1-6.6 1.7-3.5 0.7-7.1 0.7zm3.6-11.1q2.1 0 4.4-0.5 2.4-0.4 4.5-1 2-0.6 3.3-1.2v-12.9l-11.5 1.1q-3.7 0.3-5.3 2.1-1.6 1.9-1.6 5.2 0 3.4 1.5 5.3 1.5 1.9 4.6 1.9z"/><path class="b" d="m565 101.5q-9.7 0-15.1-3-5.4-3-7.6-9.6-2.2-6.6-2.2-17.3c0-7.1 0.8-12.7 2.5-16.9q2.4-6.3 8-9.1 5.5-2.7 14.5-2.7 2.4 0 5.5 0.3 3.1 0.3 6.3 0.9 3.2 0.5 5.5 0.9l-0.6 12q-2.1-0.3-4.8-0.4-2.7-0.2-5.2-0.4-2.6-0.1-4.1-0.1-4.8 0-7.6 1.5-2.7 1.5-3.8 4.9-1.1 3.4-1.1 9.1 0 6.2 1 9.8 1.1 3.7 3.7 5.3 2.6 1.6 7.8 1.6 1.5 0 4.1-0.2 2.6-0.2 5.4-0.4 2.7-0.2 4.8-0.3l0.5 11.9q-2.3 0.5-5.4 1-3.1 0.5-6.3 0.8-3.2 0.4-5.8 0.4z"/><path class="b" d="m592.1 100.2v-79h14.9v44l6.6-0.2 11.7-20.9h15.6l-14.3 26.4 15.1 29.7h-15.7l-12.1-22.2-6.9 0.3v21.9h-14.9z"/><path class="b" d="m649.1 100.2v-56.1h14.9v6.6q1.9-1.5 4.7-3.1 2.8-1.6 6.1-3 3.3-1.4 6.3-1.9v14.5q-2.9 0.4-6.1 1.5-3.3 1-6.2 2.3-2.8 1.2-4.8 2.2v37h-14.9z"/><path class="b" d="m701 83.7v16.5h-15.6v-16.5z"/><path class="b" d="m727.9 22.4v12.8h-15v-12.8zm-0.1 21.7v56.1h-15v-56.1z"/><path fill-rule="evenodd" class="b" d="m764.4 101.5q-9.5 0-15.3-3.2-5.7-3.1-8.3-9.6-2.6-6.6-2.6-17c0-6.9 0.9-12.1 2.7-16.4q2.7-6.3 8.5-9.4 5.9-3 15-3c6.2 0 11.3 1 15.1 3q5.8 3.1 8.5 9.4 2.8 6.4 2.8 16.4c0 6.7-0.9 12.6-2.6 17q-2.6 6.5-8.3 9.6-5.8 3.2-15.5 3.2zm0-12.3q4.7 0 7.1-1.8 2.4-1.7 3.2-5.6 0.8-3.8 0.8-10.1c0-4.2-0.3-7.3-1-9.8q-1-3.6-3.3-5.2-2.4-1.5-6.8-1.5c-2.9 0-5 0.5-6.6 1.5q-2.5 1.6-3.5 5.2-1 3.7-1 9.8c0 4.1 0.3 7.6 0.9 10.1q0.8 3.9 3.2 5.6 2.3 1.8 7 1.8z"/></svg>