<svg width="1073" height="373" viewBox="0 0 1073 373" fill="none" xmlns="http://www.w3.org/2000/svg">
<path d="M212.6 124.04H188.76H141.08V147.88H188.76V201.64H212.6V147.88H260.29V124.04H212.6Z" fill="#52B483"/>
<path d="M236.45 224.24H164.92V171.72H141.08V224.24V248.08H164.92H236.45H260.29V224.24V171.72H236.45V224.24Z" fill="#52B483"/>
<path d="M302.81 224.23V147.85H318.28V211.14H348.55V224.22H302.81V224.23Z" fill="#020A24"/>
<path d="M378.37 225.46C372.17 225.46 367.25 224.42 363.63 222.33C360 220.24 357.41 217.07 355.84 212.82C354.27 208.57 353.49 203.24 353.49 196.83C353.49 189.9 354.48 184.23 356.46 179.83C358.44 175.43 361.34 172.17 365.15 170.04C368.96 167.92 373.67 166.85 379.28 166.85C387.58 166.85 393.84 168.94 398.06 173.11C402.28 177.29 404.39 183.88 404.39 192.9L403.72 201.18H368.51C368.58 205.36 369.44 208.49 371.09 210.57C372.73 212.66 375.58 213.7 379.61 213.7C381.93 213.7 384.47 213.64 387.23 213.53C389.99 213.42 392.74 213.29 395.47 213.14C398.2 212.99 400.53 212.84 402.48 212.69L402.82 223.09C400.95 223.39 398.6 223.72 395.76 224.1C392.92 224.47 389.99 224.79 386.96 225.05C383.93 225.31 381.07 225.44 378.38 225.44L378.37 225.46ZM368.51 191.69H389.48C389.48 186.62 388.68 183.08 387.07 181.07C385.46 179.06 382.87 178.05 379.28 178.05C376.89 178.05 374.91 178.5 373.34 179.39C371.77 180.28 370.57 181.74 369.75 183.75C368.93 185.76 368.52 188.41 368.52 191.69H368.51Z" fill="#020A24"/>
<path d="M428.94 225.46C423.11 225.46 418.72 223.99 415.77 221.04C412.82 218.1 411.34 213.64 411.34 207.68C411.34 203.51 412.09 200.24 413.58 197.9C415.07 195.55 417.3 193.84 420.25 192.76C423.2 191.68 426.81 191.03 431.07 190.8L444.75 189.57V186.22C444.75 183.54 444.08 181.65 442.73 180.57C441.38 179.49 439.4 178.95 436.79 178.95C434.7 178.95 432.29 179.03 429.56 179.17C426.83 179.32 424.14 179.51 421.49 179.73C418.84 179.95 416.54 180.18 414.59 180.4L414.14 169.89C416.08 169.44 418.42 168.98 421.15 168.49C423.88 168.01 426.74 167.61 429.73 167.32C432.72 167.02 435.49 166.87 438.03 166.87C442.81 166.87 446.81 167.47 450.03 168.66C453.24 169.85 455.67 171.81 457.32 174.53C458.96 177.25 459.79 180.92 459.79 185.54V211.15C459.94 212.19 460.5 213 461.47 213.55C462.44 214.11 463.56 214.5 464.83 214.72L464.49 225.01C463.29 225.01 462.12 225.03 460.96 225.07C459.8 225.11 458.7 225.11 457.65 225.07C456.6 225.03 455.67 224.94 454.85 224.79C453.13 224.57 451.65 224.12 450.42 223.45C449.19 222.78 448.19 222.07 447.45 221.32C446.25 221.84 444.65 222.44 442.63 223.11C440.61 223.78 438.43 224.34 436.07 224.79C433.72 225.24 431.34 225.46 428.95 225.46H428.94ZM432.53 214.39C433.95 214.39 435.45 214.24 437.01 213.94C438.58 213.64 440.05 213.29 441.44 212.88C442.82 212.47 443.92 212.08 444.75 211.71V198.85L433.31 199.86C430.84 200.08 429.07 200.81 427.98 202.04C426.9 203.27 426.35 205 426.35 207.24C426.35 209.48 426.85 211.23 427.86 212.5C428.87 213.77 430.42 214.4 432.51 214.4L432.53 214.39Z" fill="#020A24"/>
<path d="M491.84 225.46C489.15 225.46 486.68 225.14 484.44 224.51C482.2 223.88 480.24 222.87 478.55 221.49C476.87 220.11 475.45 218.3 474.29 216.07C473.13 213.83 472.25 211.09 471.66 207.85C471.06 204.61 470.76 200.82 470.76 196.5C470.76 190.09 471.56 184.68 473.17 180.29C474.78 175.89 477.34 172.56 480.85 170.28C484.36 168.01 489.03 166.87 494.86 166.87C495.98 166.87 497.29 166.93 498.78 167.04C500.27 167.15 501.73 167.3 503.15 167.49C504.57 167.68 505.73 167.84 506.63 167.99V145.18H521.65V224.24H506.85L506.74 221C505.69 221.6 504.33 222.25 502.65 222.96C500.97 223.67 499.19 224.26 497.32 224.75C495.45 225.23 493.62 225.48 491.83 225.48L491.84 225.46ZM495.65 212.94C497 212.94 498.36 212.79 499.74 212.49C501.12 212.19 502.43 211.84 503.66 211.43C504.89 211.02 505.88 210.63 506.63 210.26V180.18C505.96 180.03 505.06 179.9 503.94 179.79C502.82 179.68 501.66 179.57 500.46 179.45C499.26 179.34 498.18 179.28 497.21 179.28C494.29 179.28 492.03 179.95 490.43 181.29C488.82 182.63 487.68 184.59 487.01 187.16C486.34 189.73 486 192.85 486 196.5C486 199.71 486.22 202.37 486.67 204.5C487.12 206.63 487.77 208.3 488.63 209.53C489.49 210.76 490.52 211.64 491.71 212.16C492.9 212.68 494.21 212.94 495.63 212.94H495.65Z" fill="#020A24"/>
<path d="M549.69 224.23V160.94H529.06V147.86H585.12V160.94H565.16V224.23H549.69Z" fill="#020A24"/>
<path d="M584.56 224.23V168.09H599.47V174.69C600.74 173.72 602.31 172.7 604.18 171.61C606.05 170.53 608.08 169.52 610.29 168.59C612.49 167.66 614.61 167.04 616.62 166.74V181.17C614.68 181.47 612.62 181.97 610.45 182.68C608.28 183.39 606.24 184.15 604.34 184.97C602.43 185.79 600.81 186.54 599.46 187.21V224.22H584.55L584.56 224.23Z" fill="#020A24"/>
<path d="M639.05 225.46C633.22 225.46 628.83 223.99 625.88 221.04C622.93 218.1 621.45 213.64 621.45 207.68C621.45 203.51 622.2 200.24 623.69 197.9C625.18 195.55 627.41 193.84 630.36 192.76C633.31 191.68 636.92 191.03 641.18 190.8L654.86 189.57V186.22C654.86 183.54 654.19 181.65 652.84 180.57C651.49 179.49 649.51 178.95 646.9 178.95C644.81 178.95 642.4 179.03 639.67 179.17C636.94 179.32 634.25 179.51 631.6 179.73C628.95 179.95 626.65 180.18 624.71 180.4L624.26 169.89C626.2 169.44 628.54 168.98 631.27 168.49C634 168.01 636.86 167.61 639.85 167.32C642.84 167.02 645.6 166.87 648.15 166.87C652.93 166.87 656.93 167.47 660.15 168.66C663.36 169.85 665.79 171.81 667.44 174.53C669.08 177.25 669.91 180.92 669.91 185.54V211.15C670.06 212.19 670.62 213 671.59 213.55C672.56 214.11 673.68 214.5 674.95 214.72L674.61 225.01C673.41 225.01 672.24 225.03 671.08 225.07C669.92 225.11 668.82 225.11 667.77 225.07C666.72 225.03 665.79 224.94 664.97 224.79C663.25 224.57 661.77 224.12 660.54 223.45C659.31 222.78 658.32 222.07 657.57 221.32C656.37 221.84 654.77 222.44 652.75 223.11C650.73 223.78 648.55 224.34 646.19 224.79C643.84 225.24 641.46 225.46 639.07 225.46H639.05ZM642.64 214.39C644.06 214.39 645.56 214.24 647.12 213.94C648.69 213.64 650.17 213.29 651.55 212.88C652.93 212.47 654.03 212.08 654.86 211.71V198.85L643.42 199.86C640.95 200.08 639.18 200.81 638.09 202.04C637.01 203.27 636.46 205 636.46 207.24C636.46 209.48 636.96 211.23 637.97 212.5C638.98 213.77 640.53 214.4 642.62 214.4L642.64 214.39Z" fill="#020A24"/>
<path d="M705.98 225.46C699.55 225.46 694.52 224.47 690.9 222.5C687.27 220.53 684.73 217.34 683.28 212.94C681.82 208.54 681.09 202.76 681.09 195.61C681.09 188.46 681.91 182.88 683.56 178.67C685.2 174.46 687.88 171.44 691.58 169.61C695.28 167.78 700.12 166.87 706.1 166.87C707.67 166.87 709.5 166.98 711.59 167.21C713.68 167.43 715.79 167.71 717.92 168.05C720.05 168.39 721.86 168.7 723.36 169L722.8 180.97C721.38 180.82 719.77 180.69 717.98 180.58C716.19 180.47 714.45 180.36 712.77 180.24C711.09 180.13 709.72 180.07 708.68 180.07C705.47 180.07 702.94 180.57 701.11 181.58C699.28 182.59 698.01 184.23 697.3 186.5C696.59 188.78 696.23 191.81 696.23 195.61C696.23 199.71 696.57 202.99 697.24 205.45C697.91 207.91 699.13 209.66 700.88 210.71C702.63 211.75 705.23 212.28 708.67 212.28C709.72 212.28 711.1 212.22 712.82 212.11C714.54 212 716.31 211.87 718.15 211.72C719.98 211.57 721.61 211.46 723.03 211.38L723.48 223.35C721.98 223.65 720.19 223.97 718.1 224.3C716.01 224.64 713.89 224.92 711.77 225.14C709.64 225.36 707.71 225.48 706 225.48L705.98 225.46Z" fill="#020A24"/>
<path d="M733.11 224.23V145.17H748.02V189.23L754.64 189.01L766.3 168.1H781.88L767.64 194.49L782.66 224.24H766.96L754.85 201.99L748.01 202.33V224.25H733.1L733.11 224.23Z" fill="#020A24"/>
<path d="M790.07 224.23V168.09H804.98V174.69C806.25 173.72 807.82 172.7 809.69 171.61C811.56 170.53 813.59 169.52 815.8 168.59C818 167.66 820.12 167.04 822.13 166.74V181.17C820.19 181.47 818.13 181.97 815.96 182.68C813.79 183.39 811.75 184.15 809.85 184.97C807.94 185.79 806.32 186.54 804.97 187.21V224.22H790.06L790.07 224.23Z" fill="#020A24"/>
<path d="M826.4 224.23V207.68H841.98V224.23H826.4Z" fill="#020A24"/>
<path d="M853.86 159.15V146.4H868.88V159.15H853.86ZM853.86 224.23V168.09H868.77V224.23H853.86Z" fill="#020A24"/>
<path d="M905.44 225.46C899.09 225.46 893.98 224.42 890.14 222.33C886.29 220.24 883.51 217.02 881.79 212.66C880.07 208.3 879.21 202.65 879.21 195.72C879.21 188.79 880.11 183.55 881.9 179.34C883.69 175.13 886.53 172 890.42 169.95C894.31 167.9 899.31 166.87 905.44 166.87C911.57 166.87 916.67 167.9 920.52 169.95C924.37 172 927.21 175.13 929.04 179.34C930.87 183.55 931.79 189.01 931.79 195.72C931.79 202.43 930.93 208.3 929.21 212.66C927.49 217.02 924.71 220.25 920.86 222.33C917.01 224.42 911.87 225.46 905.44 225.46ZM905.44 213.16C908.58 213.16 910.93 212.58 912.5 211.43C914.07 210.28 915.13 208.41 915.69 205.84C916.25 203.27 916.53 199.9 916.53 195.72C916.53 191.54 916.19 188.36 915.52 185.93C914.85 183.51 913.73 181.78 912.16 180.73C910.59 179.69 908.35 179.16 905.43 179.16C902.51 179.16 900.37 179.68 898.76 180.73C897.15 181.77 896.01 183.51 895.34 185.93C894.67 188.35 894.33 191.62 894.33 195.72C894.33 199.82 894.61 203.27 895.17 205.84C895.73 208.41 896.8 210.28 898.36 211.43C899.93 212.59 902.28 213.16 905.42 213.16H905.44Z" fill="#020A24"/>
</svg>
